<svg width="20" height="20" viewBox="0 0 20 20" fill="none" xmlns="http://www.w3.org/2000/svg">
<path fill-rule="evenodd" clip-rule="evenodd" d="M10.0004 19.5999C15.3023 19.5999 19.6004 15.3018 19.6004 9.9999C19.6004 4.69797 15.3023 0.399902 10.0004 0.399902C4.69846 0.399902 0.400391 4.69797 0.400391 9.9999C0.400391 15.3018 4.69846 19.5999 10.0004 19.5999ZM14.4489 8.44843C14.9175 7.9798 14.9175 7.22 14.4489 6.75137C13.9803 6.28275 13.2205 6.28275 12.7519 6.75137L8.80039 10.7028L7.24892 9.15137C6.78029 8.68274 6.02049 8.68274 5.55186 9.15137C5.08323 9.62 5.08323 10.3798 5.55186 10.8484L7.95186 13.2484C8.42049 13.7171 9.18029 13.7171 9.64892 13.2484L14.4489 8.44843Z" fill="#46B277"/>
</svg>
